<?xml version="1.0" standalone="no"?>
<!DOCTYPE svg PUBLIC "-//W3C//DTD SVG 20010904//EN"
 "http://www.w3.org/TR/2001/REC-SVG-20010904/DTD/svg10.dtd">
<svg version="1.0" xmlns="http://www.w3.org/2000/svg"
 width="179.000000pt" height="146.000000pt" viewBox="0 0 179.000000 146.000000"
 preserveAspectRatio="xMidYMid meet">

<g transform="translate(0.000000,146.000000) scale(0.100000,-0.100000)"
fill="#000000" stroke="none" >
<path d="M0 735 l0 -725 895 0 895 0 0 725 0 725 -895 0 -895 0 0 -725z m958
433 l-3 -93 -142 -3 -143 -3 0 -409 0 -410 -115 0 -115 0 0 410 0 409 -142 3
-143 3 -3 93 -3 92 406 0 406 0 -3 -92z m505 -207 c69 -27 144 -96 174 -162
68 -145 44 -341 -53 -449 -72 -79 -172 -120 -299 -120 -265 0 -417 175 -384
443 19 155 110 260 259 302 79 22 228 15 303 -14z"/>
<path d="M1225 806 c-42 -18 -83 -69 -92 -114 -15 -68 -7 -165 16 -211 28 -54
91 -86 157 -78 96 10 138 74 138 207 1 95 -19 149 -66 183 -34 25 -113 32
-153 13z"/>
</g>
</svg>
